<svg width="14" height="15" viewBox="0 0 14 15" fill="none" xmlns="http://www.w3.org/2000/svg">
<path fill-rule="evenodd" clip-rule="evenodd" d="M1.75213 0.833374H12.2479C13.0318 0.833374 13.6667 1.48741 13.6667 2.29488V3.31588C13.6667 3.70759 13.5136 4.08375 13.2418 4.35809L8.90511 8.74472C8.8303 8.82108 8.72871 8.86351 8.62369 8.8628L4.99263 8.85149C4.88212 8.85149 4.7771 8.80412 4.7016 8.72139L0.716355 4.33829C0.469937 4.06749 0.333344 3.70971 0.333344 3.3385V2.29558C0.333344 1.48812 0.968264 0.833374 1.75213 0.833374ZM5.1867 10.0495L8.42308 10.0594C8.62488 10.0601 8.78824 10.2291 8.78824 10.4362V12.2569C8.78824 12.4648 8.67018 12.6529 8.48623 12.7398L5.54843 14.1193C5.47979 14.1511 5.40703 14.1667 5.33427 14.1667C5.23749 14.1667 5.14071 14.1384 5.05628 14.0826C4.90871 13.985 4.81947 13.8167 4.81947 13.6364V10.4263C4.81947 10.2177 4.98421 10.0488 5.1867 10.0495Z" fill="#072951"/>
</svg>
