<svg width="66" height="66" viewBox="0 0 66 66" fill="none" xmlns="http://www.w3.org/2000/svg">
<rect opacity="0.1" width="66" height="66" rx="33" fill="#FF0000"/>
<rect opacity="0.8" x="5" y="5" width="56" height="56" rx="28" fill="#FF0000"/>
<path d="M32.5 35.4445C32.1537 35.4445 31.8634 35.3274 31.6292 35.0931C31.3949 34.8588 31.2778 34.5686 31.2778 34.2223C31.2778 33.876 31.3949 33.5857 31.6292 33.3514C31.8634 33.1172 32.1537 33.0001 32.5 33.0001C32.8463 33.0001 33.1366 33.1172 33.3708 33.3514C33.6051 33.5857 33.7222 33.876 33.7222 34.2223C33.7222 34.5686 33.6051 34.8588 33.3708 35.0931C33.1366 35.3274 32.8463 35.4445 32.5 35.4445ZM27.6111 35.4445C27.2648 35.4445 26.9745 35.3274 26.7403 35.0931C26.506 34.8588 26.3889 34.5686 26.3889 34.2223C26.3889 33.876 26.506 33.5857 26.7403 33.3514C26.9745 33.1172 27.2648 33.0001 27.6111 33.0001C27.9574 33.0001 28.2477 33.1172 28.4819 33.3514C28.7162 33.5857 28.8333 33.876 28.8333 34.2223C28.8333 34.5686 28.7162 34.8588 28.4819 35.0931C28.2477 35.3274 27.9574 35.4445 27.6111 35.4445ZM37.3889 35.4445C37.0426 35.4445 36.7523 35.3274 36.5181 35.0931C36.2838 34.8588 36.1667 34.5686 36.1667 34.2223C36.1667 33.876 36.2838 33.5857 36.5181 33.3514C36.7523 33.1172 37.0426 33.0001 37.3889 33.0001C37.7352 33.0001 38.0255 33.1172 38.2597 33.3514C38.494 33.5857 38.6111 33.876 38.6111 34.2223C38.6111 34.5686 38.494 34.8588 38.2597 35.0931C38.0255 35.3274 37.7352 35.4445 37.3889 35.4445ZM32.5 40.3334C32.1537 40.3334 31.8634 40.2163 31.6292 39.982C31.3949 39.7477 31.2778 39.4575 31.2778 39.1112C31.2778 38.7649 31.3949 38.4746 31.6292 38.2403C31.8634 38.0061 32.1537 37.8889 32.5 37.8889C32.8463 37.8889 33.1366 38.0061 33.3708 38.2403C33.6051 38.4746 33.7222 38.7649 33.7222 39.1112C33.7222 39.4575 33.6051 39.7477 33.3708 39.982C33.1366 40.2163 32.8463 40.3334 32.5 40.3334ZM27.6111 40.3334C27.2648 40.3334 26.9745 40.2163 26.7403 39.982C26.506 39.7477 26.3889 39.4575 26.3889 39.1112C26.3889 38.7649 26.506 38.4746 26.7403 38.2403C26.9745 38.0061 27.2648 37.8889 27.6111 37.8889C27.9574 37.8889 28.2477 38.0061 28.4819 38.2403C28.7162 38.4746 28.8333 38.7649 28.8333 39.1112C28.8333 39.4575 28.7162 39.7477 28.4819 39.982C28.2477 40.2163 27.9574 40.3334 27.6111 40.3334ZM37.3889 40.3334C37.0426 40.3334 36.7523 40.2163 36.5181 39.982C36.2838 39.7477 36.1667 39.4575 36.1667 39.1112C36.1667 38.7649 36.2838 38.4746 36.5181 38.2403C36.7523 38.0061 37.0426 37.8889 37.3889 37.8889C37.7352 37.8889 38.0255 38.0061 38.2597 38.2403C38.494 38.4746 38.6111 38.7649 38.6111 39.1112C38.6111 39.4575 38.494 39.7477 38.2597 39.982C38.0255 40.2163 37.7352 40.3334 37.3889 40.3334ZM23.9444 45.2223C23.2722 45.2223 22.6968 44.9829 22.2181 44.5042C21.7394 44.0255 21.5 43.4501 21.5 42.7778V25.6667C21.5 24.9945 21.7394 24.419 22.2181 23.9403C22.6968 23.4616 23.2722 23.2223 23.9444 23.2223H25.1667V20.7778H27.6111V23.2223H37.3889V20.7778H39.8333V23.2223H41.0556C41.7278 23.2223 42.3032 23.4616 42.7819 23.9403C43.2606 24.419 43.5 24.9945 43.5 25.6667V42.7778C43.5 43.4501 43.2606 44.0255 42.7819 44.5042C42.3032 44.9829 41.7278 45.2223 41.0556 45.2223H23.9444ZM23.9444 42.7778H41.0556V30.5556H23.9444V42.7778Z" fill="white"/>
</svg>
