<svg width="66" height="66" viewBox="0 0 66 66" fill="none" xmlns="http://www.w3.org/2000/svg">
<rect opacity="0.1" width="66" height="66" rx="33" fill="#FF9900"/>
<rect opacity="0.8" x="5" y="5" width="56" height="56" rx="28" fill="#FF9900"/>
<path d="M33 35.4445C32.6537 35.4445 32.3634 35.3274 32.1292 35.0931C31.8949 34.8588 31.7778 34.5686 31.7778 34.2223C31.7778 33.876 31.8949 33.5857 32.1292 33.3514C32.3634 33.1172 32.6537 33.0001 33 33.0001C33.3463 33.0001 33.6366 33.1172 33.8708 33.3514C34.1051 33.5857 34.2222 33.876 34.2222 34.2223C34.2222 34.5686 34.1051 34.8588 33.8708 35.0931C33.6366 35.3274 33.3463 35.4445 33 35.4445ZM28.1111 35.4445C27.7648 35.4445 27.4745 35.3274 27.2403 35.0931C27.006 34.8588 26.8889 34.5686 26.8889 34.2223C26.8889 33.876 27.006 33.5857 27.2403 33.3514C27.4745 33.1172 27.7648 33.0001 28.1111 33.0001C28.4574 33.0001 28.7477 33.1172 28.9819 33.3514C29.2162 33.5857 29.3333 33.876 29.3333 34.2223C29.3333 34.5686 29.2162 34.8588 28.9819 35.0931C28.7477 35.3274 28.4574 35.4445 28.1111 35.4445ZM37.8889 35.4445C37.5426 35.4445 37.2523 35.3274 37.0181 35.0931C36.7838 34.8588 36.6667 34.5686 36.6667 34.2223C36.6667 33.876 36.7838 33.5857 37.0181 33.3514C37.2523 33.1172 37.5426 33.0001 37.8889 33.0001C38.2352 33.0001 38.5255 33.1172 38.7597 33.3514C38.994 33.5857 39.1111 33.876 39.1111 34.2223C39.1111 34.5686 38.994 34.8588 38.7597 35.0931C38.5255 35.3274 38.2352 35.4445 37.8889 35.4445ZM33 40.3334C32.6537 40.3334 32.3634 40.2163 32.1292 39.982C31.8949 39.7477 31.7778 39.4575 31.7778 39.1112C31.7778 38.7649 31.8949 38.4746 32.1292 38.2403C32.3634 38.0061 32.6537 37.8889 33 37.8889C33.3463 37.8889 33.6366 38.0061 33.8708 38.2403C34.1051 38.4746 34.2222 38.7649 34.2222 39.1112C34.2222 39.4575 34.1051 39.7477 33.8708 39.982C33.6366 40.2163 33.3463 40.3334 33 40.3334ZM28.1111 40.3334C27.7648 40.3334 27.4745 40.2163 27.2403 39.982C27.006 39.7477 26.8889 39.4575 26.8889 39.1112C26.8889 38.7649 27.006 38.4746 27.2403 38.2403C27.4745 38.0061 27.7648 37.8889 28.1111 37.8889C28.4574 37.8889 28.7477 38.0061 28.9819 38.2403C29.2162 38.4746 29.3333 38.7649 29.3333 39.1112C29.3333 39.4575 29.2162 39.7477 28.9819 39.982C28.7477 40.2163 28.4574 40.3334 28.1111 40.3334ZM37.8889 40.3334C37.5426 40.3334 37.2523 40.2163 37.0181 39.982C36.7838 39.7477 36.6667 39.4575 36.6667 39.1112C36.6667 38.7649 36.7838 38.4746 37.0181 38.2403C37.2523 38.0061 37.5426 37.8889 37.8889 37.8889C38.2352 37.8889 38.5255 38.0061 38.7597 38.2403C38.994 38.4746 39.1111 38.7649 39.1111 39.1112C39.1111 39.4575 38.994 39.7477 38.7597 39.982C38.5255 40.2163 38.2352 40.3334 37.8889 40.3334ZM24.4444 45.2223C23.7722 45.2223 23.1968 44.9829 22.7181 44.5042C22.2394 44.0255 22 43.4501 22 42.7778V25.6667C22 24.9945 22.2394 24.419 22.7181 23.9403C23.1968 23.4616 23.7722 23.2223 24.4444 23.2223H25.6667V20.7778H28.1111V23.2223H37.8889V20.7778H40.3333V23.2223H41.5556C42.2278 23.2223 42.8032 23.4616 43.2819 23.9403C43.7606 24.419 44 24.9945 44 25.6667V42.7778C44 43.4501 43.7606 44.0255 43.2819 44.5042C42.8032 44.9829 42.2278 45.2223 41.5556 45.2223H24.4444ZM24.4444 42.7778H41.5556V30.5556H24.4444V42.7778Z" fill="white"/>
</svg>
