<svg width="12" height="12" viewBox="0 0 12 12" fill="none" xmlns="http://www.w3.org/2000/svg">
<path d="M1.63336 1.80008V1.91805L1.71813 1.83601C3.51071 0.101254 6.28645 -0.303622 8.54181 0.968453C11.3184 2.58833 12.301 6.11638 10.7399 8.89196C9.69886 10.6847 7.79046 11.7834 5.70836 11.7834C5.54472 11.7834 5.41224 11.7291 5.3208 11.6376C5.22935 11.5462 5.17503 11.4137 5.17503 11.2501C5.17503 11.0864 5.22935 10.954 5.3208 10.8625C5.41224 10.7711 5.54472 10.7167 5.70836 10.7167C8.30264 10.7167 10.425 8.59436 10.425 6.00008C10.425 3.4058 8.30264 1.28341 5.70836 1.28341C4.35374 1.28341 3.11448 1.81358 2.2874 2.75882L2.21484 2.84175H2.32503H3.72503C3.88866 2.84175 4.02114 2.89608 4.11259 2.98752C4.20403 3.07896 4.25836 3.21144 4.25836 3.37508C4.25836 3.53872 4.20403 3.6712 4.11259 3.76264C4.02114 3.85409 3.88866 3.90842 3.72503 3.90842H1.10003C0.936389 3.90842 0.80391 3.85409 0.712465 3.76264C0.621021 3.6712 0.566693 3.53872 0.566693 3.37508V0.750081C0.566693 0.586444 0.621021 0.453964 0.712465 0.36252C0.80391 0.271076 0.936389 0.216748 1.10003 0.216748C1.26366 0.216748 1.39614 0.271076 1.48759 0.36252C1.57903 0.453964 1.63336 0.586444 1.63336 0.750081V1.80008ZM6.18336 5.41675V5.46675H6.23336H6.81669C6.98033 5.46675 7.11281 5.52108 7.20426 5.61252C7.2957 5.70396 7.35003 5.83644 7.35003 6.00008C7.35003 6.16372 7.2957 6.2962 7.20426 6.38764C7.11281 6.47909 6.98033 6.53341 6.81669 6.53341H5.65003C5.48639 6.53341 5.35391 6.47909 5.26247 6.38764C5.17102 6.2962 5.11669 6.16372 5.11669 6.00008V4.25008C5.11669 4.08644 5.17102 3.95396 5.26247 3.86252C5.35391 3.77108 5.48639 3.71675 5.65003 3.71675C5.81366 3.71675 5.94614 3.77108 6.03759 3.86252C6.12903 3.95396 6.18336 4.08644 6.18336 4.25008V5.41675Z" fill="#FF5757" stroke="white" stroke-width="0.1"/>
</svg>
